<svg id="Layer_1" xmlns="http://www.w3.org/2000/svg" xmlns:xlink="http://www.w3.org/1999/xlink" viewBox="0 0 337.3 337.3"><style>.st0{fill:#711518}.st0,.st1{clip-path:url(#SVGID_2_)}.st1,.st2{fill:#fff}.st3{font-family:&apos;MarketDeco&apos;}.st4{font-size:9.6884px}.st5{letter-spacing:1.7}.st6{letter-spacing:.9}.st7{clip-path:url(#SVGID_4_);fill:#fff}.st8{font-family:&apos;DeftoneStylus-Regular&apos;}.st9{font-size:37.9433px}.st10{letter-spacing:-1.8}.st11{font-size:37px}.st12{letter-spacing:-1}</style><defs><path id="SVGID_1_" d="M-90.2-84.3h500v500h-500z"/></defs><clipPath id="SVGID_2_"><use xlink:href="#SVGID_1_" overflow="visible"/></clipPath><path class="st0" d="M337.3 168.7c0 6.2-12.5 11.6-13.1 17.5-.7 6.1 10.3 14.1 8.9 20-1.4 6-14.7 8.5-16.7 14.2-2 5.8 6.9 16 4.2 21.5s-16.2 4.9-19.5 10.1c-3.2 5.2 3.1 17.1-.7 21.9-3.8 4.8-16.9 1.2-21.2 5.5-4.3 4.3-.7 17.4-5.5 21.2-4.7 3.8-16.7-2.6-21.9.7-5.1 3.2-4.6 16.8-10.1 19.5-5.5 2.6-15.7-6.2-21.5-4.2-5.7 2-8.2 15.3-14.2 16.7-5.9 1.3-13.9-9.6-20-8.9-6 .7-11.4 13.1-17.5 13.1-6.2 0-11.6-12.5-17.5-13.1-6.1-.7-14.1 10.3-20 8.9-6-1.4-8.5-14.7-14.2-16.7-5.8-2-16 6.9-21.5 4.2-5.5-2.6-4.9-16.2-10.1-19.5-5.2-3.2-17.2 3.1-21.9-.7-4.8-3.8-1.2-16.9-5.5-21.2-4.3-4.3-17.4-.7-21.2-5.5-3.8-4.7 2.6-16.7-.7-21.9-3.2-5.1-16.8-4.6-19.5-10.1-2.6-5.4 6.2-15.7 4.2-21.5-2-5.7-15.3-8.2-16.7-14.2-1.3-5.9 9.6-13.9 8.9-20-.7-6-13.1-11.4-13.1-17.5 0-6.2 12.5-11.6 13.1-17.5.7-6.1-10.3-14.1-8.9-20 1.4-6 14.7-8.5 16.7-14.2 2-5.8-6.9-16-4.2-21.5s16.2-4.9 19.5-10.1c3.2-5.2-3.1-17.1.7-21.9 3.8-4.8 16.9-1.2 21.2-5.5 4.3-4.3.8-17.4 5.5-21.2C68 33 80 39.4 85.2 36.1c5.1-3.2 4.6-16.8 10.1-19.5 5.5-2.6 15.7 6.2 21.5 4.2 5.7-2 8.2-15.3 14.2-16.7 5.9-1.3 13.9 9.6 20 8.9 6-.7 11.4-13.1 17.5-13.1 6.2 0 11.6 12.5 17.5 13.1 6.1.7 14.1-10.3 20-8.9 6 1.4 8.5 14.7 14.2 16.7 5.8 2 16-6.9 21.5-4.2 5.5 2.6 4.9 16.2 10.1 19.5 5.2 3.2 17.2-3.1 21.9.7 4.8 3.8 1.2 16.9 5.5 21.2 4.3 4.3 17.4.7 21.2 5.5 3.8 4.7-2.6 16.7.7 21.9 3.2 5.1 16.8 4.6 19.5 10.1 2.6 5.5-6.2 15.7-4.2 21.5 2 5.7 15.3 8.2 16.7 14.2 1.3 5.9-9.6 13.9-8.9 20 .7 5.9 13.1 11.3 13.1 17.5"/><path class="st1" d="M58.3 116.7c19.5-41.4 61.6-70.1 110.2-70.1 48.7 0 90.7 28.7 110.2 70.1h1.7C260.8 74.5 218 45.2 168.5 45.2c-49.5 0-92.3 29.4-111.9 71.6h1.7zM283.8 207.7c-16.4 47.9-61.8 82.5-115.3 82.5-53.4 0-98.9-34.6-115.3-82.5h-1.6c16.4 48.8 62.6 84.1 116.9 84.1s100.4-35.3 116.9-84.1h-1.6z"/><path class="st1" d="M48.3 116.7c20.1-46.5 66.4-79.1 120.2-79.1s100.1 32.6 120.2 79.1h3.3c-20.3-48.2-68-82.2-123.5-82.2S65.3 68.5 45 116.7h3.3zM293.3 207.7c-16.7 53-66.3 91.6-124.8 91.6S60.4 260.7 43.7 207.7h-3.2c16.8 54.7 67.8 94.7 128 94.7s111.2-39.9 128-94.7h-3.2z"/><path class="st1" d="M142.4 245.8s.6.4 1.5 1.1c1 .6 2.3 1.5 3.8 2.3.8.5 1.8 1 2.9 1.4 1.1.4 2.4.5 3.6.6 1.2 0 2.2-.1 2.9-.3.7-.2 1.2-.3 1.2-.3s-.4.3-1.2.5c-.7.2-1.8.4-3 .4s-2.5-.1-3.7-.3c-1.2-.2-2.4-.6-3.3-.9-1.6-.8-2.8-2-3.6-2.9-.7-1-1.1-1.6-1.1-1.6M206.1 255.3c-.2-.6-.4-1.2-.8-1.7s-.8-1-1.4-1.5c-1-.9-2.3-1.7-3.7-2.3-1-.4-3.3-1.1-7.7-1.1-1 0-3.2.2-3.8.3-1 .1-2.1.2-3.2.4-3.2.5-7 1.3-11.1 2.4l-3.2.9c-1.1.3-2.2.6-3.3 1-2.2.7-4.5 1.5-6.8 2.3-4.7 1.5-9.2 2.6-13.4 3.2-4.2.6-8 .6-11.1.1-3.1-.5-5.5-1.6-7.1-2.6-1.5-1-2.2-1.7-2.2-1.7s.7.8 2.1 1.8c.7.5 1.7 1.1 2.9 1.7 1.2.5 2.6 1 4.2 1.4 3.2.7 7.1.9 11.4.4 4.3-.5 5-.3 9.7-1.8 2.4-.7 8.5-2.9 10.7-3.6 1.1-.4 2.1-.8 3.2-1l3.1-.9c4.1-1.2 7.8-2.2 10.9-2.8 3.9-.8 9.5-1.4 14.1 0 1.3.4 2.5 1.3 3.4 2.2.5.4.9.9 1.2 1.4.3.5.5 1 .6 1.5.2 1-.2 2-.8 2.8-.6.8-1.6 1.3-2.5 1.6-.2.1-.4.2-.6.2-.2.1-.4.1-.6.2-.4.1-.8.1-1.3.1-.9 0-1.7-.3-2.3-.6-.3-.2-.6-.4-.8-.6l-.3-.3c-.1-.1-.2-.2-.2-.3-.2-.5-.1-1 .2-1.3.3-.4.8-.7 1.2-.8.5-.1 1-.1 1.3 0 .4.1.6.3.8.4l.2.2s0-.1-.1-.2-.3-.4-.7-.5c-.4-.2-1-.3-1.6-.3-.3 0-.7.1-1 .3-.3.1-.6.3-.9.6-.5.5-.9 1.2-.7 1.9 0 .2.1.4.2.6.1.2.2.4.4.5.3.3.6.7 1.1 1 .9.6 2 1 3.3 1.1.6.1 1.3 0 2-.1.3 0 .6-.1.9-.2.3-.1.6-.2.8-.3 1.1-.6 2.1-1.4 2.7-2.4.7-1.3 1-2.5.6-3.6"/><path class="st1" d="M128.9 246.9s.1 0 .2.1c.2 0 .4-.1.6-.3.1-.3.2-.7 0-1-.1-.2-.2-.3-.4-.5-.2-.1-.4-.2-.7-.2-.5-.1-1.1.1-1.5.5-.2.2-.4.4-.5.8-.1.3-.2.7-.2 1 0 .7.2 1.4.6 2.1.4.7 1 1.3 1.7 1.8.5.4 1.2.8 1.9 1.1.7.3 1.4.7 2.2 1 2.4 1 5.6 1.8 9.1 2 3.5.2 7.1-.1 10.4-.6 3.3-.5 6.2-1.3 8.2-1.9 2.1-.6 3.3-1 3.3-1 0 .1-1.2.6-3.3 1.2-2.1.7-5 1.5-8.3 2.1-3.3.6-7 1-10.5.9-3.5-.1-6.9-.6-9.5-1.4-.8-.3-1.6-.6-2.4-1-.8-.4 23 1.6 22.4 1.1l-24.5-2.5c-.4-.3-.8-.7-1.1-1.1-.3-.4-.6-.8-.8-1.2-.4-.9-.7-1.9-.5-2.8.1-.5.2-.9.4-1.3s.4-.8.8-1c.7-.5 1.5-.6 2.1-.4.3.1.6.2.8.4.2.2.4.5.5.7.2.5 0 1-.2 1.2-.2.3-.5.3-.7.3l-.1-.1"/><path class="st1" d="M136 246.7l.9.9c.6.6 1.3 1.3 2.1 2 .4.5.9 1 1.6 1.4.7.4 1.5.8 2.2 1 1.5.4 2.8.3 2.8.4 0 .1-1.3.3-2.9-.1-.8-.2-1.6-.4-2.4-.8-.8-.3-1.5-.7-2.1-1.1-.9-.8-1.5-1.8-1.8-2.6-.3-.6-.4-1.1-.4-1.1M167.1 265.9s.1-.1.2-.1c.1-.1.4-.1.6.1.2.2.3.6.3.9 0 .2-.1.4-.3.5-.1.2-.4.3-.6.4-.5.2-1.1.3-1.6 0-.3-.1-.5-.3-.6-.6-.2-.3-.4-.5-.5-.9-.2-.6-.2-1.3 0-2.1.2-.7.6-1.5 1.1-2.1.4-.5 1-1.1 1.5-1.6.6-.5 1.2-1 1.9-1.5 2-1.7 4.9-3.3 8.1-4.5 3.2-1.2 6.8-2 10.1-2.5s6.3-.6 8.4-.6c2.1 0 3.5 0 3.5-.1s-1.3-.2-3.5-.2-5.2.1-8.5.5-6.9 1.1-10.3 2.2c-3.4 1.1-6.4 2.6-8.7 4-.7.5-1.4 1.1-2 1.6-.6.6-1.2 1.2-1.7 1.9-.3.4-.5.9-.7 1.3-.2.4-.3.9-.4 1.4-.2.9-.1 1.9.3 2.7.2.4.4.7.7 1 .3.3.6.6 1 .7.8.3 1.6.1 2.2-.2.3-.2.5-.4.7-.6.2-.2.2-.5.2-.8 0-.5-.2-.9-.5-1.1-.3-.2-.6-.1-.8 0 0 .2-.1.3-.1.3"/><path class="st1" d="M173.4 264.3l.7-1.4c.5-.9 1.1-2.1 1.9-3.2.4-.7.9-1.5 1.6-2.2.7-.7 1.6-1.4 2.5-1.8.9-.4 1.7-.7 2.3-.9.6-.2 1-.2 1-.2s-.4-.1-1.1.1c-.6.1-1.5.4-2.4.8-.9.4-1.8 1-2.7 1.7-.8.7-1.5 1.4-2.1 2-.9 1.3-1.3 2.7-1.6 3.7-.1.8-.1 1.4-.1 1.4M180.4 261.5s.2-.4.6-1c.4-.6.8-1.4 1.4-2.2.2-.5.6-1.1 1.1-1.6.5-.5 1.1-1 1.7-1.4 1.2-.7 2.3-.9 2.3-1 0-.1-1.2.1-2.5.7-.7.3-1.3.8-1.9 1.3-.6.5-1.1 1-1.6 1.4-.6.9-.9 1.9-1 2.6-.1.8-.1 1.2-.1 1.2"/><text transform="matrix(1.1442 0 0 1 134.825 80.948)"><tspan x="0" y="0" class="st2 st3 st4 st5">E</tspan><tspan x="6.3" y="0" class="st2 st3 st4 st6">S</tspan><tspan x="12.9" y="0" class="st2 st3 st4 st5">T.</tspan><tspan x="24.5" y="0" class="st2 st3 st4"></tspan></text><text transform="matrix(1.1442 0 0 1 168.848 80.948)" class="st2 st3 st4"></text><text transform="matrix(1.1442 0 0 1 173.525 80.948)"><tspan x="0" y="0" class="st2 st3 st4 st5">2</tspan><tspan x="6.9" y="0" class="st2 st3 st4 st6">0</tspan><tspan x="13.8" y="0" class="st2 st3 st4 st5">1</tspan><tspan x="18.7" y="0" class="st2 st3 st4">4</tspan></text><g><defs><path id="SVGID_3_" d="M-90.2-84.3h500v500h-500z"/></defs><clipPath id="SVGID_4_"><use xlink:href="#SVGID_3_" overflow="visible"/></clipPath><path class="st7" d="M95.2 172.7c-.5 1.7-1.5 3.5-3 5.3-1.5 1.8-3.2 3.5-5.1 5.1-1.9 1.6-4 2.9-6.1 4-2.1 1.1-4.1 1.7-5.9 2-1.7.2-3.1-.1-4.1-.9-1-.8-1.6-2-1.7-3.4-.1-1 0-2.2.4-3.6 4.3-14.5 8.8-29.4 13.5-44.5.2-.7.3-1.4.2-2 0-.6-.4-.9-1.2-.7-.8.2-1.7.6-2.6 1.4-1 .8-1.9 1.7-2.9 2.8-1 1.1-1.8 2.2-2.7 3.5-.8 1.3-1.4 2.4-1.9 3.4-4.7 15.6-9.2 30.9-13.5 45.8l-11.5 1.5c4.8-16.6 9.8-33.7 15.1-51.3.2-.7.2-1.3.2-1.9-.1-.6-.5-.8-1.2-.6-.8.2-1.6.7-2.6 1.5s-1.9 1.7-2.8 2.8c-.9 1.1-1.8 2.3-2.6 3.5-.8 1.2-1.4 2.4-1.8 3.4-4.4 15-8.6 29.6-12.7 43.8-4.8.7-7.2 1-12 1.7 4.5-15.6 9.2-31.9 14.1-48.7.2-.6.2-1.1.2-1.5-.1-1-1.2-1.2-3.1-.7-.3.1-.4.1-.7.2-1.5.4-2.3 0-2.5-1.2-.1-1 .2-1.9 1-2.7.8-.8 2.6-1.6 5.3-2.4 3.6-1 6.5-1.5 8.7-1.5 2.2.1 3.5 1 3.8 2.7 1.3-1.8 2.7-3.4 4.5-4.7 1.7-1.3 4-2.3 6.7-3 2.9-.7 5.1-.7 6.6-.1 1.5.7 2.4 1.9 2.7 3.7 1.5-2.3 3.2-4.1 5-5.5 1.8-1.4 4.1-2.4 6.8-2.9 3-.6 5.3-.5 6.8.4s2.3 2.4 2.4 4.5c.1 1.8-.3 4.2-1.2 7-4.2 13.4-8.3 26.6-12.2 39.6-.1.2-.1.4-.1.7 0 .5.4.7 1 .6.7-.1 1.7-.5 2.7-1.2 1.1-.7 2.1-1.5 3.1-2.6 1-1 1.9-2.1 2.7-3.3.8-1.2 1.4-2.2 1.7-3.2 1.1 1.4 1.6 2 2.5 3.2"/><path class="st7" d="M125.2 169.7c-.5 1.3-1.2 2.7-2.2 4.1-1 1.4-2.2 2.8-3.6 4.1-2.6 2.5-5.2 4.4-7.8 5.8-2.6 1.4-5.6 2.2-9.1 2.5-1.9.2-3.5.2-4.9.2-1.4 0-2.6-.2-3.7-.6-1-.4-1.8-1-2.4-1.8-.6-.8-.9-2-1-3.5-.2-2.2.4-5.3 1.6-9.3.9-2.8 1.3-4.2 2.2-7.1.7-2.3 1.5-4.3 2.4-6 .9-1.7 2-3.1 3.3-4.3 1.3-1.2 2.9-2.1 4.6-2.8 1.8-.7 3.9-1.2 6.3-1.4 1.9-.2 3.4-.3 4.7-.1 1.2.1 2.2.4 2.9.8.7.4 1.2.9 1.5 1.5.3.6.5 1.4.5 2.2.1 1.4-.1 3-.3 4.8-.3 1.8-.9 3.6-2 5.4-.7 1.2-1.7 2.3-3 3.2-1.3.9-2.7 1.6-4.2 2.2-1.5.6-3.1 1.1-4.7 1.5-1.6.4-3 .7-4.3.9-.5 1.5-.8 2.8-1.1 3.8-.2 1-.3 1.9-.3 2.6.1 1.5 1 2.1 2.7 2 1.9-.2 3.9-.7 5.9-1.4 2-.8 3.9-1.8 5.6-3 1.8-1.2 3.3-2.6 4.7-4.2 1.4-1.6 2.5-3.2 3.2-5 1.1 1.1 1.6 1.7 2.5 2.9m-21.8-2.3c1-.2 2-.7 2.9-1.3.9-.6 1.7-1.5 2.3-2.4.6-1 1.1-2 1.4-3.2.3-1.2.5-2.5.4-3.8 0-.7-.5-1-1.4-.9-.6.1-1.1.3-1.5.8-.4.5-.9 1.4-1.3 2.8-1.2 3.1-1.7 4.8-2.8 8"/><path class="st7" d="M159.2 168.4c-.7 1.8-1.8 3.6-3.4 5.4-1.6 1.8-3.4 3.5-5.4 5-2 1.5-4.1 2.7-6.3 3.7s-4.2 1.5-6 1.5c-.8 0-1.5-.2-2-.8-.5-.6-.8-1.3-1-2.3-1 1.1-2 1.9-3.3 2.5-1.2.6-2.9 1-5 1.1-1.9.1-3.5-.4-4.8-1.5-1.3-1.1-2-2.8-2.1-5.1-.1-1.5.1-3.3.6-5.5s1.2-4.6 2.2-7.2c1.3-3.5 2.6-6.4 3.8-8.6 1.2-2.3 2.5-4.1 3.7-5.4 1.3-1.3 2.5-2.3 3.8-2.9 1.3-.6 2.6-.9 4-1 2-.1 3.4.1 4.2.8.9.6 1.6 1.4 2.1 2.3.3-.8.4-1.2.7-2 3.4-.1 5.2-.2 8.6-.3-3 8.2-4.4 12.3-7.2 20.4-.5 1.4-.8 2.5-1 3.1-.2.6-.3 1.1-.3 1.6 0 .9.4 1.3 1.2 1.2.8 0 1.7-.4 2.8-1 1.1-.7 2.1-1.5 3.2-2.4 1-.9 2-1.9 2.8-3 .8-1.1 1.4-2.1 1.8-2.9 1 1.3 1.5 1.9 2.3 3.3m-19.1-13c.1-.2.1-.4.1-.6v-.6c0-.3-.1-.6-.3-.8-.2-.2-.5-.4-1-.3-.7 0-1.3.3-1.7.8-.4.5-.8 1.2-1.1 2.2-2.4 7.2-3.6 10.7-6 17.8-.4 1-.6 2-.5 2.9 0 .9.4 1.3 1 1.3 1.1-.1 2.1-1.4 3-3.9 2.6-7.4 3.9-11.2 6.5-18.8"/><path class="st7" d="M179.7 168.5c-.6 1.7-1.8 3.4-3.3 5.2-1.6 1.8-3.4 3.4-5.4 4.8-2 1.4-4.1 2.6-6.3 3.6-2.2.9-4.2 1.4-6.1 1.4-1.6 0-2.8-.6-3.8-1.8-.9-1.2-1.4-2.6-1.4-4.3 0-.5 0-1.1.2-1.9.1-.7.3-1.4.6-2.1 3-8.4 4.5-12.6 7.6-21.1h-3.1c.7-1.9 1.1-2.9 1.8-4.9h3c4-10.7 6-16 10.2-26.6 5-.3 7.5-.4 12.6-.5-4.4 10.8-6.5 16.3-10.7 27.2 1.3 0 2 0 3.3.1-.7 1.9-1.1 2.9-1.9 4.8-1.3 0-1.9 0-3.2-.1l-7.5 20c-.2.6-.4 1-.4 1.4 0 .5.2.7.7.7.8 0 1.8-.3 2.9-.9 1.1-.6 2.2-1.4 3.3-2.3 1.1-.9 2.1-2 3-3.1.9-1.1 1.6-2.1 2-3 .6 1.3 1 2 1.9 3.4"/><path class="st7" d="M212.6 170.2c-.9 1.7-1.8 3.2-2.9 4.2-1 1.1-2.1 1.9-3.1 2.5-1 .6-2 1-3 1.2-1 .2-1.8.3-2.6.2-1.1-.1-2-.3-2.7-.7-.7-.4-1.2-.9-1.4-1.5-.8 1.1-1.8 2.1-2.9 3-1.1.9-2.3 1.7-3.6 2.4-1.3.7-2.6 1.2-3.9 1.6-1.3.4-2.6.5-3.8.5-5.6-.1-8.4-2.9-8.4-8.3 0-2 .5-4.2 1.4-6.5 6.3-16.5 12.8-32.8 19.5-48.8 4.9.4 7.4.6 12.3 1.1-4.9 11.1-7.3 16.8-11.9 28.2.8-.8 1.6-1.2 2.3-1.5.8-.2 1.7-.3 2.7-.2 2.1.2 3.5 1 4.2 2.4.7 1.5 1.1 3.2 1 5.2 0 1.2-.4 2.9-1.1 5.1-.7 2.2-1.7 4.8-3 8-.2.4-.3.9-.3 1.5 0 1.1.5 1.7 1.7 1.7 1.4.1 2.8-.3 4-1.1 1.3-.8 2.4-2 3.5-3.8.8 1.5 1.2 2.2 2 3.6m-15.7-15.1c.1-.2.1-.4.1-.6 0-.7-.4-1.1-1.4-1.2-.6 0-1.1.1-1.4.3-.3.3-.6.7-.9 1.3-3.1 7.5-4.6 11.3-7.6 18.8-.2.5-.4 1-.5 1.4-.1.5-.1.9-.1 1.2 0 .9.3 1.4.9 1.4 1 0 2.1-1.3 3.3-3.9 2.9-7.4 4.5-11.2 7.6-18.7"/><path class="st7" d="M246.7 173.8c-.8 1.6-2.1 3.1-3.8 4.6-1.7 1.5-3.6 2.9-5.7 4-2.1 1.2-4.3 2.1-6.5 2.7-2.2.7-4.3.9-6.1.8-.8-.1-1.5-.4-1.9-1-.5-.6-.7-1.4-.8-2.4-1 .9-2.2 1.6-3.4 2.1-1.3.5-3 .6-5.1.5-1.9-.1-3.5-.8-4.6-2-1.2-1.2-1.7-3-1.7-5.4.1-1.5.4-3.3 1.1-5.5.7-2.2 1.6-4.5 2.8-6.8 1.6-3.3 3-5.9 4.5-8 1.4-2 2.8-3.6 4.1-4.7 1.4-1.1 2.7-1.8 4-2.1 1.3-.3 2.7-.4 4.1-.2 2 .2 3.4.8 4.2 1.5.8.7 1.4 1.6 1.9 2.6.3-.7.5-1.1.8-1.8 3.4.5 5.1.7 8.6 1.2-3.6 7.2-5.3 10.8-8.8 18.2-.6 1.3-1 2.3-1.3 2.8-.2.6-.4 1.1-.4 1.5-.1.8.3 1.3 1.1 1.4.8.1 1.8-.1 2.9-.6 1.1-.5 2.2-1.1 3.3-1.9 1.1-.7 2.1-1.6 3-2.5.9-.9 1.6-1.7 2-2.5.5 1.4.9 2.1 1.7 3.5m-18.1-15.2c.1-.2.2-.3.2-.5v-.5c0-.3-.1-.5-.2-.8-.2-.3-.5-.4-.9-.5-.7-.1-1.3.1-1.7.5-.4.4-.8 1-1.2 2-3 6.6-4.4 9.9-7.3 16.5-.5 1-.7 1.9-.8 2.8 0 .9.3 1.4.9 1.4 1.1.1 2.2-1.1 3.3-3.4 3-7.2 4.5-10.6 7.7-17.5"/><path class="st7" d="M272 177.5c-.9 1.5-2.1 3-3.8 4.3-1.7 1.4-3.5 2.6-5.7 3.6-2.1 1-4.4 1.8-6.8 2.4-2.4.5-4.9.7-7.4.4-2.4-.3-4.2-1.2-5.5-2.8-1.3-1.6-1.9-3.6-1.7-5.9 0-.7.2-1.3.3-2 .2-.7.4-1.3.7-2 5.9-12.3 12-24.2 18.2-35.5 1.8-3.2 4.1-5.3 6.7-6.2 2.7-.9 6-.8 10 .2 2.3.6 4 1.5 5.2 2.6 1.2 1.1 1.6 2.5 1.5 4-.1.5-.2 1.1-.5 1.8s-.8 1.6-1.5 2.9c-2.1 3.4-3.2 5.2-5.3 8.7-3.9 6.8-9.8 11.2-17.5 13.1-2.1 4-3.1 6-5.1 10-.3.6-.5 1.1-.6 1.6-.1.6.3 1.2 1.2 1.6.8.5 1.7.7 2.5.9 1.1.1 2.3 0 3.6-.4 1.3-.4 2.5-.9 3.7-1.6 1.2-.7 2.4-1.5 3.4-2.4 1.1-.9 1.9-1.8 2.5-2.8.8 1.5 1.2 2.2 1.9 3.5m3.2-33.7c.5-.8.8-1.4 1-1.7.2-.3.3-.6.3-.9.1-.5-.3-.8-1-1-.9-.2-1.6.1-2.1.9-4.5 7.5-6.7 11.4-11 19.4 1.1-.2 2.4-1.1 3.8-2.5s2.7-3.2 3.8-5.3c2-3.6 3.1-5.4 5.2-8.9"/><path class="st7" d="M297.4 181.8c-.9 1.4-2.2 2.7-3.9 4-1.7 1.3-3.6 2.3-5.7 3.3-2.1.9-4.4 1.6-6.9 2.1-2.5.4-4.9.5-7.4.2-2.4-.3-4.2-1.3-5.5-2.9-1.3-1.6-1.8-3.5-1.6-5.7.1-.6.2-1.2.4-1.9.2-.6.4-1.3.8-1.9 6.2-11.6 12.5-22.6 18.9-32.9 1.9-2.9 4.2-4.7 6.9-5.4 2.7-.7 6-.4 10 .8 2.3.7 4 1.6 5.1 2.7 1.1 1.1 1.6 2.4 1.4 3.8-.1.5-.3 1-.5 1.6-.3.6-.8 1.4-1.6 2.6-2.2 3.1-3.3 4.6-5.5 7.8-4.1 6.1-10 10-17.8 11.6-2.2 3.7-3.2 5.5-5.4 9.3-.3.6-.5 1.1-.6 1.5-.1.6.3 1.1 1.1 1.6s1.7.8 2.5.9c1.1.2 2.3.1 3.6-.2 1.3-.3 2.5-.8 3.8-1.4 1.2-.6 2.4-1.3 3.5-2.2 1.1-.8 1.9-1.7 2.6-2.5.7 1.3 1 2 1.8 3.2m3.8-31.3c.5-.7.8-1.3 1-1.6.2-.3.3-.6.3-.8.1-.5-.3-.8-1-1-.9-.3-1.6 0-2.1.7-4.6 6.8-6.9 10.3-11.4 17.6 1.1-.2 2.4-.9 3.8-2.2 1.4-1.3 2.7-2.9 3.9-4.8 2.2-3.1 3.3-4.7 5.5-7.9"/></g><text transform="matrix(1.0889 0 0 1 94.922 128.94)"><tspan x="0" y="0" class="st2 st8 st9 st10">T</tspan><tspan x="20.4" y="0" class="st2 st8 st9">he</tspan></text><text transform="translate(110.934 226.865)"><tspan x="0" y="0" class="st2 st8 st11 st12">S</tspan><tspan x="20.2" y="0" class="st2 st8 st11">toppe</tspan></text></svg>